<svg xmlns="http://www.w3.org/2000/svg" id="canvas" viewBox="238.814 366.736 1223.101 156.671"><path d="M 272.07,397.21 C 271.51 397.65, 271.46 398.04, 271.06 399.37 C 270.66 400.70, 270.27 401.44, 270.07 403.84 C 269.88 406.24, 270.33 407.73, 270.09 411.38 C 269.85 415.03, 269.68 417.38, 268.85 422.10 C 268.03 426.81, 267.23 429.44, 265.98 434.95 C 264.73 440.46, 264.10 443.77, 262.59 449.64 C 261.09 455.51, 259.99 458.57, 258.45 464.30 C 256.92 470.03, 256.29 473.07, 254.94 478.27 C 253.59 483.48, 252.88 486.27, 251.71 490.33 C 250.53 494.40, 249.65 495.98, 249.06 498.60 C 248.46 501.21, 248.36 502.31, 248.72 503.39 C 249.08 504.48, 249.85 504.83, 250.87 504.02 C 251.89 503.20, 252.72 502.30, 253.81 499.33 C 254.90 496.37, 255.05 493.90, 256.33 489.21 C 257.61 484.52, 258.49 481.73, 260.22 475.88 C 261.95 470.03, 262.82 466.62, 264.98 459.98 C 267.13 453.33, 268.18 449.58, 271.00 442.65 C 273.82 435.72, 275.49 432.10, 279.08 425.34 C 282.68 418.58, 284.73 415.15, 288.97 408.83 C 293.21 402.50, 295.59 399.07, 300.26 393.71 C 304.94 388.36, 307.62 385.75, 312.36 382.06 C 317.10 378.38, 319.56 377.16, 323.95 375.28 C 328.34 373.39, 330.49 372.85, 334.30 372.66 C 338.11 372.47, 339.89 372.80, 343.01 374.32 C 346.12 375.84, 347.40 377.20, 349.88 380.25 C 352.35 383.30, 353.52 385.21, 355.37 389.58 C 357.21 393.94, 358.28 396.52, 359.10 402.08 C 359.93 407.63, 360.14 410.99, 359.48 417.34 C 358.82 423.69, 358.06 427.06, 355.81 433.82 C 353.56 440.59, 352.08 444.36, 348.23 451.16 C 344.39 457.96, 341.96 461.51, 336.59 467.83 C 331.22 474.15, 327.72 477.11, 321.38 482.75 C 315.04 488.38, 311.48 491.21, 304.88 496.02 C 298.29 500.82, 294.66 503.28, 288.41 506.77 C 282.15 510.26, 279.05 511.48, 273.63 513.48 C 268.20 515.48, 265.49 516.12, 261.26 516.78 C 257.04 517.43, 255.30 516.89, 252.48 516.75 C 249.66 516.60, 248.74 516.33, 247.16 516.04 C 245.58 515.75, 245.26 515.55, 244.57 515.30 C 243.87 515.05, 244.05 514.85, 243.67 514.79 C 243.30 514.72, 242.91 514.75, 242.69 514.97 C 242.48 515.19, 242.53 516.00, 242.59 515.91 C 242.66 515.82, 243.16 514.67, 243.02 514.52 C 242.88 514.37, 242.07 514.73, 241.89 515.14 C 241.72 515.55, 241.85 516.07, 242.14 516.57 C 242.43 517.08, 242.51 517.13, 243.35 517.67 C 244.20 518.21, 244.56 518.73, 246.36 519.27 C 248.16 519.82, 249.29 520.37, 252.37 520.40 C 255.45 520.43, 257.36 520.40, 261.76 519.42 C 266.17 518.45, 268.89 517.71, 274.40 515.51 C 279.92 513.30, 283.03 512.02, 289.33 508.40 C 295.63 504.79, 299.28 502.30, 305.91 497.42 C 312.55 492.54, 316.11 489.70, 322.51 484.01 C 328.91 478.32, 332.45 475.34, 337.91 468.96 C 343.38 462.57, 345.87 458.97, 349.83 452.07 C 353.79 445.17, 355.34 441.37, 357.72 434.47 C 360.10 427.57, 360.94 424.14, 361.72 417.59 C 362.51 411.04, 362.39 407.55, 361.65 401.73 C 360.92 395.91, 359.92 393.17, 358.05 388.48 C 356.18 383.79, 355.05 381.68, 352.31 378.29 C 349.57 374.89, 347.98 373.20, 344.34 371.51 C 340.70 369.83, 338.41 369.54, 334.13 369.84 C 329.86 370.15, 327.58 370.93, 322.96 373.04 C 318.34 375.14, 315.86 376.50, 311.03 380.38 C 306.19 384.25, 303.51 386.95, 298.79 392.43 C 294.07 397.92, 291.70 401.39, 287.43 407.80 C 283.15 414.20, 281.09 417.64, 277.44 424.46 C 273.79 431.28, 272.08 434.94, 269.17 441.90 C 266.27 448.86, 265.19 452.65, 262.89 459.28 C 260.59 465.91, 259.70 469.30, 257.68 475.06 C 255.66 480.81, 254.52 483.51, 252.79 488.06 C 251.07 492.61, 249.85 494.79, 249.04 497.82 C 248.23 500.86, 248.46 502.04, 248.75 503.25 C 249.03 504.46, 249.63 504.58, 250.48 503.87 C 251.33 503.16, 252.14 502.25, 252.99 499.70 C 253.84 497.14, 253.82 495.25, 254.72 491.09 C 255.62 486.93, 256.26 484.13, 257.48 478.90 C 258.70 473.66, 259.31 470.65, 260.82 464.93 C 262.33 459.20, 263.45 456.14, 265.02 450.27 C 266.59 444.41, 267.26 441.10, 268.68 435.60 C 270.10 430.11, 270.96 427.52, 272.13 422.79 C 273.30 418.05, 273.84 415.66, 274.52 411.94 C 275.20 408.22, 275.41 406.67, 275.52 404.18 C 275.63 401.69, 275.40 400.89, 275.08 399.48 C 274.75 398.08, 274.51 397.60, 273.91 397.14 C 273.30 396.69, 272.64 396.76, 272.07 397.21" style="stroke:#ffffff; fill:#ffffff;"/><path d="M 398.45,452.40 C 398.70 451.65, 398.76 450.88, 398.15 449.99 C 397.54 449.10, 396.72 448.46, 395.38 447.94 C 394.03 447.42, 393.20 447.24, 391.41 447.39 C 389.63 447.53, 388.55 447.67, 386.44 448.65 C 384.33 449.64, 383.09 450.31, 380.87 452.33 C 378.65 454.34, 377.83 455.83, 375.35 458.72 C 372.86 461.60, 371.17 463.37, 368.44 466.75 C 365.71 470.13, 364.06 472.06, 361.70 475.62 C 359.33 479.17, 357.88 481.24, 356.60 484.53 C 355.32 487.82, 354.92 489.72, 355.31 492.07 C 355.69 494.43, 356.68 495.42, 358.53 496.32 C 360.39 497.22, 361.87 497.42, 364.59 496.59 C 367.32 495.75, 368.88 494.52, 372.15 492.15 C 375.42 489.78, 377.34 488.01, 380.94 484.73 C 384.54 481.45, 386.50 479.25, 390.15 475.76 C 393.81 472.27, 395.89 470.24, 399.21 467.27 C 402.53 464.30, 404.81 462.99, 406.75 460.90 C 408.70 458.81, 409.00 457.49, 408.94 456.82 C 408.87 456.15, 407.90 456.31, 406.43 457.55 C 404.95 458.78, 403.66 460.22, 401.56 463.00 C 399.47 465.78, 398.07 468.04, 395.95 471.43 C 393.82 474.82, 392.28 476.88, 390.93 479.96 C 389.57 483.04, 389.07 484.61, 389.16 486.84 C 389.26 489.07, 389.86 490.13, 391.40 491.11 C 392.94 492.09, 394.28 492.38, 396.85 491.75 C 399.43 491.12, 401.09 490.03, 404.26 487.95 C 407.43 485.87, 409.23 484.21, 412.71 481.35 C 416.18 478.50, 418.16 476.69, 421.63 473.67 C 425.11 470.65, 427.23 468.76, 430.09 466.26 C 432.95 463.76, 434.54 462.64, 435.93 461.15 C 437.32 459.66, 437.28 458.91, 437.03 458.80 C 436.78 458.70, 435.84 459.18, 434.66 460.62 C 433.48 462.07, 432.34 463.45, 431.12 466.02 C 429.90 468.60, 429.08 470.49, 428.56 473.50 C 428.04 476.51, 427.89 478.54, 428.52 481.10 C 429.15 483.65, 429.94 484.73, 431.70 486.27 C 433.46 487.81, 434.60 488.42, 437.32 488.80 C 440.04 489.17, 441.84 488.97, 445.32 488.15 C 448.79 487.33, 450.91 486.35, 454.70 484.70 C 458.50 483.05, 460.50 481.97, 464.29 479.90 C 468.09 477.82, 470.13 476.42, 473.69 474.34 C 477.25 472.26, 479.44 471.15, 482.10 469.48 C 484.76 467.81, 485.80 466.76, 486.99 466.00 C 488.19 465.23, 488.24 465.10, 488.08 465.65 C 487.91 466.21, 487.23 466.92, 486.16 468.77 C 485.08 470.63, 483.85 472.26, 482.70 474.95 C 481.55 477.63, 480.87 479.59, 480.42 482.21 C 479.96 484.83, 480.04 486.78, 480.43 488.05 C 480.82 489.33, 481.38 489.42, 482.36 488.59 C 483.34 487.77, 484.07 486.16, 485.31 483.92 C 486.55 481.69, 487.44 480.14, 488.57 477.42 C 489.70 474.69, 490.66 472.81, 490.97 470.30 C 491.28 467.78, 491.08 466.29, 490.11 464.84 C 489.14 463.39, 488.17 462.86, 486.12 463.05 C 484.08 463.24, 482.76 464.15, 479.89 465.78 C 477.02 467.41, 475.24 469.02, 471.78 471.21 C 468.32 473.40, 466.31 474.77, 462.60 476.73 C 458.88 478.69, 456.86 479.63, 453.20 481.00 C 449.54 482.38, 447.40 482.94, 444.29 483.61 C 441.19 484.28, 439.74 484.36, 437.68 484.35 C 435.61 484.34, 434.94 484.33, 433.98 483.58 C 433.02 482.82, 432.79 482.28, 432.89 480.56 C 433.00 478.85, 433.66 477.44, 434.51 475.01 C 435.37 472.57, 436.37 470.99, 437.18 468.40 C 437.99 465.82, 438.48 464.12, 438.58 462.06 C 438.67 460.00, 438.63 458.87, 437.67 458.11 C 436.72 457.35, 435.83 457.23, 433.80 458.27 C 431.76 459.31, 430.40 460.77, 427.50 463.32 C 424.61 465.87, 422.75 468.01, 419.32 471.02 C 415.90 474.03, 413.87 475.76, 410.37 478.36 C 406.86 480.97, 404.81 482.23, 401.80 484.05 C 398.78 485.88, 397.17 486.49, 395.29 487.49 C 393.41 488.49, 392.97 489.09, 392.41 489.05 C 391.85 489.00, 391.95 488.66, 392.50 487.26 C 393.04 485.86, 393.64 484.71, 395.14 482.07 C 396.64 479.42, 397.89 477.27, 400.02 474.04 C 402.14 470.81, 403.89 468.84, 405.76 465.91 C 407.62 462.98, 408.77 461.39, 409.34 459.40 C 409.92 457.42, 409.71 456.29, 408.64 455.97 C 407.57 455.66, 406.35 456.07, 404.00 457.83 C 401.65 459.60, 400.10 461.67, 396.90 464.80 C 393.69 467.92, 391.62 470.01, 387.98 473.48 C 384.33 476.94, 382.30 479.07, 378.65 482.10 C 375.01 485.14, 372.89 486.62, 369.75 488.67 C 366.61 490.72, 365.01 491.33, 362.95 492.36 C 360.89 493.39, 360.31 493.91, 359.45 493.82 C 358.58 493.73, 358.44 493.45, 358.63 491.91 C 358.82 490.37, 359.18 488.95, 360.42 486.10 C 361.65 483.25, 362.63 481.05, 364.81 477.66 C 367.00 474.28, 368.61 472.37, 371.35 469.18 C 374.09 465.98, 375.89 464.23, 378.51 461.68 C 381.12 459.14, 382.37 458.13, 384.43 456.46 C 386.49 454.78, 387.32 454.17, 388.82 453.32 C 390.32 452.47, 391.00 452.36, 391.93 452.21 C 392.86 452.06, 392.86 452.30, 393.47 452.58 C 394.08 452.86, 394.31 453.39, 394.99 453.63 C 395.67 453.86, 396.19 454.00, 396.89 453.75 C 397.58 453.51, 398.19 453.15, 398.45 452.40" style="stroke:#ffffff; fill:#ffffff;"/><path d="M 518.35,459.76 C 519.45 459.66, 520.55 458.87, 522.34 457.76 C 524.14 456.65, 525.51 455.58, 527.32 454.23 C 529.13 452.87, 530.31 451.79, 531.39 450.98 C 532.46 450.18, 532.58 449.81, 532.71 450.22 C 532.83 450.63, 532.53 451.31, 532.00 453.05 C 531.47 454.78, 530.86 456.19, 530.04 458.88 C 529.22 461.58, 528.64 463.48, 527.90 466.52 C 527.16 469.57, 526.59 471.33, 526.34 474.10 C 526.10 476.86, 526.09 478.34, 526.68 480.33 C 527.28 482.33, 527.95 482.96, 529.32 484.06 C 530.69 485.15, 531.53 485.51, 533.54 485.82 C 535.56 486.13, 536.80 486.23, 539.39 485.61 C 541.99 485.00, 543.65 484.11, 546.52 482.75 C 549.39 481.39, 550.89 480.48, 553.75 478.80 C 556.60 477.11, 558.04 476.19, 560.79 474.33 C 563.55 472.48, 565.00 471.38, 567.53 469.52 C 570.07 467.66, 571.33 466.81, 573.47 465.04 C 575.61 463.27, 576.53 462.40, 578.24 460.68 C 579.96 458.96, 580.68 458.13, 582.04 456.43 C 583.40 454.74, 584.17 453.99, 585.03 452.20 C 585.89 450.41, 586.25 449.32, 586.36 447.50 C 586.46 445.67, 586.38 444.63, 585.57 443.07 C 584.77 441.50, 584.20 440.47, 582.35 439.67 C 580.50 438.86, 578.85 438.42, 576.32 439.04 C 573.80 439.66, 572.25 440.64, 569.71 442.77 C 567.17 444.90, 565.95 446.70, 563.62 449.70 C 561.29 452.69, 559.94 454.38, 558.05 457.75 C 556.16 461.12, 555.21 463.11, 554.18 466.55 C 553.16 469.98, 552.77 471.88, 552.93 474.92 C 553.08 477.97, 553.54 479.37, 554.96 481.77 C 556.39 484.18, 557.56 485.63, 560.05 486.94 C 562.54 488.26, 564.15 488.49, 567.41 488.34 C 570.68 488.18, 572.61 487.71, 576.38 486.17 C 580.14 484.63, 582.18 483.38, 586.23 480.64 C 590.28 477.90, 592.25 476.13, 596.62 472.45 C 600.98 468.78, 603.53 466.67, 608.04 462.25 C 612.54 457.83, 614.98 455.20, 619.14 450.36 C 623.30 445.51, 625.20 442.91, 628.85 438.03 C 632.51 433.16, 634.40 430.66, 637.42 425.99 C 640.44 421.33, 641.76 418.85, 643.96 414.72 C 646.16 410.59, 647.37 408.69, 648.42 405.34 C 649.46 401.99, 649.73 400.20, 649.18 397.97 C 648.64 395.73, 647.61 394.80, 645.68 394.15 C 643.75 393.50, 642.25 393.47, 639.54 394.72 C 636.83 395.97, 635.17 397.26, 632.15 400.39 C 629.12 403.52, 627.49 405.72, 624.43 410.36 C 621.38 415.00, 619.67 418.05, 616.87 423.61 C 614.08 429.17, 612.56 432.30, 610.47 438.16 C 608.37 444.03, 607.38 447.21, 606.40 452.93 C 605.41 458.66, 605.07 461.78, 605.52 466.78 C 605.98 471.78, 606.50 474.06, 608.67 477.92 C 610.83 481.77, 613.15 483.63, 616.37 486.06 C 619.59 488.49, 621.72 489.19, 624.76 490.06 C 627.80 490.93, 630.13 490.70, 631.55 490.40 C 632.98 490.11, 633.02 489.36, 631.90 488.58 C 630.78 487.80, 628.66 487.57, 625.96 486.50 C 623.25 485.44, 621.32 485.29, 618.37 483.27 C 615.42 481.26, 613.24 479.79, 611.19 476.44 C 609.15 473.09, 608.61 471.15, 608.13 466.53 C 607.65 461.91, 607.89 458.85, 608.81 453.34 C 609.73 447.83, 610.66 444.69, 612.73 438.98 C 614.80 433.27, 616.32 430.17, 619.17 424.79 C 622.01 419.42, 623.80 416.41, 626.94 412.09 C 630.07 407.76, 631.89 405.84, 634.84 403.17 C 637.79 400.51, 639.64 400.07, 641.71 398.78 C 643.77 397.49, 644.28 396.78, 645.17 396.70 C 646.06 396.62, 646.20 396.87, 646.16 398.38 C 646.12 399.89, 645.94 401.25, 644.98 404.26 C 644.03 407.27, 643.32 409.35, 641.39 413.43 C 639.46 417.51, 638.20 420.02, 635.32 424.66 C 632.45 429.31, 630.58 431.81, 627.00 436.65 C 623.41 441.49, 621.52 444.08, 617.39 448.85 C 613.26 453.62, 610.84 456.20, 606.35 460.50 C 601.85 464.80, 599.27 466.87, 594.90 470.37 C 590.53 473.86, 588.47 475.52, 584.50 477.96 C 580.52 480.40, 578.49 481.40, 575.03 482.57 C 571.57 483.74, 569.81 483.68, 567.19 483.81 C 564.57 483.94, 563.66 484.03, 561.93 483.22 C 560.20 482.40, 559.45 481.42, 558.52 479.73 C 557.59 478.04, 557.35 477.15, 557.28 474.75 C 557.22 472.35, 557.33 470.72, 558.20 467.73 C 559.07 464.75, 559.87 462.84, 561.64 459.80 C 563.42 456.77, 564.78 455.14, 567.07 452.55 C 569.36 449.97, 570.94 448.61, 573.09 446.87 C 575.25 445.12, 576.26 444.49, 577.84 443.81 C 579.42 443.13, 580.15 443.30, 580.99 443.46 C 581.83 443.62, 581.85 443.90, 582.05 444.61 C 582.25 445.33, 582.20 445.92, 581.99 447.04 C 581.79 448.15, 581.73 448.89, 581.04 450.21 C 580.35 451.52, 579.75 452.16, 578.56 453.61 C 577.37 455.06, 576.70 455.90, 575.08 457.46 C 573.46 459.01, 572.51 459.69, 570.46 461.38 C 568.40 463.06, 567.23 464.03, 564.80 465.88 C 562.38 467.73, 561.00 468.89, 558.34 470.65 C 555.67 472.41, 554.28 473.25, 551.48 474.68 C 548.68 476.12, 547.08 476.71, 544.35 477.82 C 541.62 478.93, 539.98 479.46, 537.83 480.22 C 535.68 480.99, 534.94 481.37, 533.60 481.64 C 532.27 481.90, 531.80 481.93, 531.15 481.55 C 530.51 481.17, 530.32 481.07, 530.39 479.74 C 530.45 478.41, 530.91 477.26, 531.47 474.90 C 532.03 472.55, 532.33 470.86, 533.20 467.96 C 534.07 465.07, 535.14 463.34, 535.82 460.44 C 536.51 457.53, 536.83 455.79, 536.63 453.42 C 536.42 451.04, 536.07 449.89, 534.79 448.55 C 533.51 447.21, 532.43 446.61, 530.22 446.70 C 528.00 446.80, 525.98 447.56, 523.71 449.03 C 521.45 450.51, 520.27 452.22, 518.90 454.07 C 517.52 455.92, 516.94 457.15, 516.84 458.29 C 516.73 459.43, 517.25 459.87, 518.35 459.76" style="stroke:#ffffff; fill:#ffffff;"/><path d="M 828.11,411.07 C 828.21 410.09, 827.89 409.02, 826.91 407.43 C 825.94 405.85, 825.24 404.73, 823.22 403.13 C 821.21 401.54, 819.90 400.25, 816.85 399.45 C 813.79 398.65, 812.18 398.51, 807.96 399.15 C 803.75 399.79, 801.31 400.40, 795.76 402.65 C 790.20 404.91, 786.99 406.63, 780.18 410.43 C 773.37 414.22, 769.24 416.32, 761.70 421.64 C 754.15 426.95, 749.81 430.47, 742.44 437.00 C 735.08 443.53, 730.88 447.60, 724.86 454.30 C 718.84 460.99, 716.02 464.64, 712.34 470.48 C 708.65 476.32, 707.45 479.13, 706.44 483.50 C 705.44 487.86, 705.52 489.82, 707.31 492.31 C 709.09 494.80, 711.23 495.56, 715.35 495.95 C 719.47 496.34, 722.26 495.60, 727.92 494.26 C 733.59 492.91, 737.00 491.77, 743.67 489.22 C 750.34 486.67, 754.09 484.80, 761.28 481.50 C 768.48 478.20, 772.60 476.11, 779.63 472.73 C 786.66 469.35, 790.37 467.45, 796.43 464.59 C 802.49 461.72, 805.76 460.27, 809.93 458.40 C 814.09 456.54, 815.80 455.98, 817.24 455.26 C 818.68 454.55, 818.28 454.06, 817.14 454.83 C 816.01 455.60, 814.45 456.61, 811.55 459.12 C 808.66 461.63, 806.25 463.91, 802.67 467.38 C 799.10 470.85, 796.75 473.01, 793.69 476.45 C 790.63 479.90, 788.87 481.53, 787.38 484.60 C 785.90 487.66, 785.58 489.58, 786.27 491.78 C 786.95 493.98, 788.26 494.91, 790.81 495.59 C 793.37 496.27, 795.26 496.06, 799.04 495.16 C 802.82 494.26, 805.26 493.24, 809.70 491.09 C 814.15 488.93, 816.88 487.26, 821.27 484.39 C 825.66 481.53, 828.01 479.68, 831.65 476.76 C 835.29 473.84, 837.36 472.37, 839.49 469.79 C 841.61 467.22, 842.19 465.76, 842.28 463.90 C 842.36 462.04, 841.52 461.37, 839.93 460.50 C 838.34 459.64, 836.69 459.22, 834.34 459.57 C 831.98 459.92, 829.67 460.69, 828.15 462.26 C 826.63 463.83, 826.56 465.68, 826.73 467.41 C 826.90 469.15, 827.13 469.89, 829.01 470.93 C 830.89 471.98, 832.60 472.56, 836.13 472.63 C 839.67 472.71, 842.13 472.22, 846.70 471.33 C 851.27 470.44, 853.97 469.56, 858.99 468.19 C 864.00 466.82, 867.09 465.69, 871.77 464.47 C 876.44 463.26, 879.08 462.74, 882.36 462.14 C 885.65 461.53, 887.04 461.25, 888.18 461.44 C 889.32 461.63, 889.09 461.70, 888.08 463.07 C 887.08 464.44, 885.47 465.61, 883.17 468.27 C 880.86 470.93, 878.87 473.21, 876.57 476.36 C 874.28 479.51, 872.61 481.25, 871.69 484.02 C 870.76 486.80, 870.81 488.47, 871.93 490.24 C 873.04 492.02, 874.44 492.90, 877.26 492.88 C 880.08 492.87, 882.32 492.09, 886.01 490.18 C 889.71 488.27, 891.91 486.49, 895.74 483.35 C 899.57 480.21, 901.71 478.07, 905.16 474.48 C 908.62 470.88, 910.50 468.66, 913.02 465.38 C 915.55 462.11, 916.86 460.59, 917.79 458.11 C 918.71 455.63, 918.42 454.43, 917.63 452.98 C 916.83 451.54, 915.64 451.06, 913.82 450.89 C 912.00 450.71, 910.23 450.94, 908.53 452.11 C 906.83 453.29, 905.68 454.68, 905.32 456.74 C 904.95 458.79, 905.23 460.49, 906.71 462.39 C 908.19 464.29, 909.70 465.34, 912.72 466.24 C 915.75 467.13, 917.83 466.89, 921.82 466.86 C 925.80 466.84, 928.16 466.67, 932.64 466.12 C 937.13 465.57, 939.77 464.99, 944.24 464.11 C 948.71 463.23, 951.11 462.47, 954.98 461.73 C 958.86 461.00, 960.87 460.84, 963.60 460.43 C 966.33 460.03, 967.49 459.68, 968.65 459.70 C 969.80 459.73, 969.74 459.73, 969.37 460.57 C 968.99 461.41, 968.18 462.10, 966.78 463.90 C 965.39 465.69, 963.91 467.09, 962.38 469.54 C 960.86 472.00, 959.63 473.75, 959.16 476.17 C 958.69 478.59, 958.82 480.17, 960.04 481.64 C 961.27 483.10, 962.55 483.78, 965.30 483.51 C 968.05 483.24, 969.84 482.09, 973.81 480.27 C 977.78 478.46, 980.39 476.91, 985.13 474.44 C 989.87 471.97, 992.83 470.22, 997.52 467.92 C 1002.22 465.61, 1004.93 464.45, 1008.61 462.92 C 1012.29 461.38, 1014.04 460.90, 1015.92 460.24 C 1017.80 459.58, 1018.03 459.33, 1018.02 459.61 C 1018.01 459.89, 1016.96 460.35, 1015.86 461.65 C 1014.76 462.95, 1013.56 464.11, 1012.51 466.10 C 1011.47 468.10, 1010.90 469.48, 1010.64 471.65 C 1010.38 473.82, 1010.35 475.26, 1011.22 476.94 C 1012.09 478.62, 1012.94 479.42, 1015.00 480.03 C 1017.06 480.64, 1018.40 480.55, 1021.52 479.99 C 1024.65 479.44, 1026.41 478.69, 1030.63 477.25 C 1034.84 475.82, 1037.67 474.65, 1042.60 472.82 C 1047.53 470.99, 1050.32 469.80, 1055.26 468.10 C 1060.20 466.40, 1062.72 465.82, 1067.30 464.30 C 1071.87 462.77, 1074.60 461.75, 1078.14 460.49 C 1081.67 459.22, 1082.95 458.86, 1084.97 457.99 C 1086.99 457.12, 1087.27 456.74, 1088.25 456.12 C 1089.23 455.49, 1089.61 455.32, 1089.86 454.86 C 1090.10 454.41, 1089.93 454.02, 1089.46 453.84 C 1088.98 453.66, 1088.63 453.83, 1087.48 453.97 C 1086.33 454.11, 1085.83 453.90, 1083.71 454.54 C 1081.59 455.18, 1080.37 455.78, 1076.89 457.16 C 1073.41 458.55, 1070.82 459.83, 1066.31 461.47 C 1061.80 463.10, 1059.27 463.69, 1054.32 465.36 C 1049.37 467.02, 1046.50 468.16, 1041.54 469.80 C 1036.58 471.43, 1033.70 472.46, 1029.52 473.53 C 1025.33 474.59, 1023.41 474.58, 1020.61 475.13 C 1017.81 475.69, 1016.79 476.15, 1015.51 476.30 C 1014.22 476.46, 1014.13 476.52, 1014.19 475.89 C 1014.24 475.26, 1014.99 474.60, 1015.79 473.16 C 1016.59 471.73, 1017.38 470.71, 1018.18 468.74 C 1018.98 466.76, 1019.55 465.28, 1019.81 463.28 C 1020.07 461.29, 1020.38 460.02, 1019.48 458.76 C 1018.57 457.50, 1017.71 456.79, 1015.27 456.99 C 1012.83 457.19, 1011.10 458.12, 1007.27 459.75 C 1003.45 461.38, 1000.88 462.80, 996.15 465.14 C 991.43 467.48, 988.42 469.15, 983.63 471.45 C 978.84 473.74, 976.05 475.02, 972.21 476.60 C 968.38 478.19, 966.54 478.64, 964.45 479.37 C 962.36 480.09, 961.94 480.47, 961.76 480.22 C 961.57 479.98, 962.28 479.53, 963.52 478.12 C 964.76 476.72, 966.36 475.55, 967.98 473.20 C 969.59 470.86, 970.76 468.93, 971.60 466.39 C 972.44 463.85, 972.62 462.41, 972.20 460.52 C 971.77 458.63, 971.30 457.83, 969.48 456.95 C 967.67 456.08, 966.17 455.90, 963.12 456.15 C 960.07 456.40, 958.14 457.28, 954.23 458.20 C 950.32 459.12, 947.98 459.90, 943.58 460.76 C 939.19 461.63, 936.59 462.15, 932.27 462.52 C 927.94 462.88, 925.59 462.86, 921.96 462.59 C 918.32 462.33, 916.57 461.78, 914.12 461.17 C 911.66 460.56, 910.66 460.21, 909.68 459.55 C 908.71 458.88, 908.87 458.43, 909.25 457.83 C 909.62 457.23, 910.55 457.22, 911.56 456.53 C 912.57 455.84, 913.47 454.94, 914.31 454.39 C 915.16 453.84, 915.77 453.35, 915.78 453.78 C 915.80 454.20, 915.50 454.62, 914.38 456.51 C 913.26 458.40, 912.49 460.09, 910.17 463.23 C 907.86 466.37, 906.13 468.74, 902.81 472.21 C 899.48 475.68, 897.27 477.72, 893.54 480.58 C 889.81 483.43, 887.49 484.82, 884.14 486.49 C 880.80 488.15, 878.86 488.37, 876.81 488.90 C 874.77 489.43, 874.12 489.71, 873.91 489.13 C 873.71 488.54, 874.45 487.94, 875.78 485.97 C 877.11 484.01, 878.34 482.28, 880.56 479.31 C 882.79 476.35, 884.80 474.18, 886.89 471.16 C 888.99 468.14, 890.59 466.60, 891.04 464.22 C 891.50 461.84, 891.00 460.39, 889.16 459.24 C 887.32 458.10, 885.47 458.07, 881.82 458.49 C 878.18 458.92, 875.66 460.05, 870.93 461.37 C 866.21 462.69, 863.14 463.85, 858.17 465.08 C 853.21 466.32, 850.49 467.02, 846.10 467.54 C 841.71 468.07, 839.40 467.77, 836.22 467.73 C 833.03 467.69, 831.59 467.40, 830.18 467.36 C 828.76 467.33, 828.87 467.62, 829.16 467.57 C 829.44 467.51, 830.24 467.58, 831.61 467.08 C 832.97 466.59, 834.41 465.89, 835.96 465.09 C 837.52 464.28, 838.58 463.42, 839.37 463.07 C 840.17 462.72, 840.51 462.51, 839.95 463.33 C 839.38 464.16, 838.63 465.02, 836.56 467.21 C 834.48 469.39, 832.97 471.33, 829.57 474.24 C 826.17 477.15, 823.83 479.01, 819.56 481.73 C 815.29 484.46, 812.51 485.98, 808.21 487.87 C 803.91 489.76, 801.44 490.33, 798.07 491.18 C 794.69 492.03, 793.20 492.10, 791.35 492.09 C 789.50 492.09, 788.93 492.30, 788.81 491.16 C 788.69 490.03, 789.24 488.88, 790.75 486.42 C 792.26 483.96, 793.43 482.08, 796.36 478.85 C 799.29 475.62, 801.80 473.61, 805.41 470.26 C 809.02 466.91, 811.70 464.96, 814.41 462.10 C 817.11 459.24, 818.46 457.75, 818.94 455.96 C 819.42 454.17, 818.83 453.16, 816.81 453.15 C 814.79 453.15, 813.08 454.02, 808.82 455.93 C 804.56 457.83, 801.51 459.66, 795.50 462.67 C 789.49 465.69, 785.80 467.59, 778.79 470.99 C 771.78 474.39, 767.64 476.47, 760.46 479.69 C 753.28 482.91, 749.51 484.71, 742.88 487.09 C 736.25 489.47, 732.78 490.42, 727.32 491.60 C 721.86 492.77, 719.14 493.15, 715.57 492.98 C 711.99 492.81, 710.81 492.54, 709.44 490.74 C 708.06 488.95, 707.80 487.88, 708.71 484.02 C 709.61 480.17, 710.47 477.20, 713.95 471.47 C 717.42 465.75, 720.18 462.05, 726.09 455.40 C 732.00 448.74, 736.18 444.67, 743.50 438.20 C 750.82 431.73, 755.15 428.24, 762.68 423.05 C 770.21 417.86, 774.36 415.83, 781.17 412.24 C 787.97 408.65, 791.26 407.04, 796.69 405.12 C 802.13 403.19, 804.61 402.84, 808.33 402.63 C 812.06 402.43, 813.03 403.14, 815.34 404.09 C 817.65 405.03, 818.26 406.09, 819.89 407.36 C 821.52 408.64, 822.18 409.47, 823.48 410.47 C 824.79 411.46, 825.50 412.22, 826.43 412.34 C 827.35 412.46, 828.01 412.05, 828.11 411.07" style="stroke:#ffffff; fill:#ffffff;"/><path d="M 1107.29,454.19 C 1108.25 454.66, 1109.55 454.50, 1111.61 454.45 C 1113.67 454.41, 1114.84 454.36, 1117.61 453.96 C 1120.38 453.55, 1122.37 453.11, 1125.47 452.43 C 1128.56 451.75, 1130.26 451.43, 1133.06 450.56 C 1135.87 449.70, 1137.39 449.09, 1139.49 448.10 C 1141.59 447.12, 1142.61 446.71, 1143.58 445.64 C 1144.55 444.57, 1144.81 443.78, 1144.33 442.75 C 1143.86 441.72, 1143.04 441.11, 1141.20 440.49 C 1139.36 439.86, 1138.04 439.31, 1135.13 439.63 C 1132.22 439.96, 1130.24 440.74, 1126.64 442.10 C 1123.03 443.46, 1120.97 444.45, 1117.10 446.42 C 1113.23 448.38, 1111.20 449.45, 1107.29 451.94 C 1103.38 454.42, 1101.06 456.12, 1097.56 458.83 C 1094.05 461.54, 1092.00 462.88, 1089.77 465.48 C 1087.53 468.07, 1086.72 469.29, 1086.37 471.81 C 1086.01 474.33, 1086.21 475.94, 1088.00 478.07 C 1089.79 480.20, 1091.65 481.32, 1095.30 482.46 C 1098.96 483.60, 1101.46 483.69, 1106.27 483.77 C 1111.07 483.84, 1113.96 483.58, 1119.32 482.83 C 1124.69 482.08, 1127.76 481.43, 1133.11 480.01 C 1138.46 478.59, 1141.22 477.55, 1146.07 475.75 C 1150.92 473.94, 1153.16 473.00, 1157.34 470.98 C 1161.52 468.95, 1163.42 467.80, 1166.97 465.62 C 1170.51 463.45, 1172.13 462.33, 1175.07 460.11 C 1178.00 457.89, 1179.27 456.73, 1181.65 454.53 C 1184.02 452.34, 1185.36 451.21, 1186.95 449.14 C 1188.55 447.08, 1189.18 445.79, 1189.64 444.22 C 1190.09 442.65, 1189.97 441.83, 1189.23 441.31 C 1188.48 440.78, 1187.64 440.68, 1185.92 441.61 C 1184.19 442.53, 1182.80 443.55, 1180.61 445.93 C 1178.43 448.31, 1177.28 450.40, 1175.00 453.50 C 1172.72 456.61, 1171.26 458.48, 1169.20 461.45 C 1167.14 464.42, 1165.68 465.88, 1164.70 468.37 C 1163.72 470.85, 1163.70 472.26, 1164.29 473.88 C 1164.88 475.50, 1165.88 476.06, 1167.65 476.47 C 1169.42 476.88, 1170.73 476.76, 1173.14 475.93 C 1175.56 475.09, 1177.03 474.15, 1179.73 472.31 C 1182.42 470.47, 1183.89 469.06, 1186.63 466.74 C 1189.37 464.42, 1191.02 463.15, 1193.43 460.71 C 1195.83 458.27, 1197.43 456.83, 1198.65 454.54 C 1199.86 452.26, 1199.90 450.88, 1199.50 449.27 C 1199.09 447.67, 1198.18 446.88, 1196.62 446.51 C 1195.06 446.14, 1193.62 446.43, 1191.70 447.43 C 1189.77 448.44, 1188.56 449.58, 1186.99 451.55 C 1185.43 453.52, 1184.81 454.89, 1183.88 457.30 C 1182.94 459.70, 1182.34 461.12, 1182.33 463.58 C 1182.32 466.04, 1182.51 467.53, 1183.83 469.59 C 1185.15 471.66, 1186.31 472.74, 1188.93 473.90 C 1191.54 475.06, 1193.17 475.41, 1196.91 475.41 C 1200.64 475.40, 1202.91 475.02, 1207.59 473.87 C 1212.28 472.72, 1215.11 471.81, 1220.33 469.68 C 1225.54 467.55, 1228.31 466.20, 1233.67 463.21 C 1239.02 460.23, 1241.82 458.29, 1247.10 454.75 C 1252.38 451.21, 1255.28 449.26, 1260.08 445.51 C 1264.88 441.76, 1267.12 439.65, 1271.09 436.00 C 1275.05 432.34, 1276.79 430.48, 1279.89 427.23 C 1283.00 423.99, 1284.40 422.66, 1286.62 419.78 C 1288.85 416.89, 1289.81 415.40, 1291.00 412.80 C 1292.20 410.21, 1292.52 408.95, 1292.60 406.80 C 1292.67 404.66, 1292.33 403.61, 1291.39 402.08 C 1290.44 400.55, 1289.53 399.93, 1287.87 399.14 C 1286.21 398.35, 1285.40 397.88, 1283.09 398.13 C 1280.77 398.37, 1279.09 398.77, 1276.28 400.37 C 1273.48 401.97, 1272.04 403.26, 1269.08 406.11 C 1266.12 408.96, 1264.56 410.80, 1261.48 414.61 C 1258.40 418.41, 1256.45 420.67, 1253.68 425.14 C 1250.92 429.62, 1249.65 432.28, 1247.65 436.99 C 1245.65 441.69, 1244.73 444.11, 1243.68 448.66 C 1242.63 453.21, 1242.23 455.64, 1242.42 459.75 C 1242.61 463.86, 1243.05 465.97, 1244.64 469.22 C 1246.24 472.46, 1247.48 473.92, 1250.38 475.98 C 1253.28 478.03, 1255.21 478.70, 1259.13 479.49 C 1263.05 480.29, 1265.43 480.32, 1269.99 479.95 C 1274.54 479.58, 1277.15 479.07, 1281.91 477.64 C 1286.67 476.21, 1289.25 475.12, 1293.77 472.81 C 1298.30 470.50, 1300.73 468.92, 1304.55 466.10 C 1308.37 463.28, 1310.27 461.62, 1312.88 458.71 C 1315.49 455.80, 1316.59 454.29, 1317.60 451.56 C 1318.61 448.84, 1318.53 447.28, 1317.93 445.08 C 1317.32 442.88, 1316.56 441.64, 1314.58 440.56 C 1312.61 439.48, 1310.81 439.20, 1308.07 439.67 C 1305.32 440.13, 1303.56 441.07, 1300.86 442.89 C 1298.17 444.72, 1296.71 446.15, 1294.60 448.78 C 1292.49 451.42, 1291.28 453.07, 1290.30 456.07 C 1289.31 459.06, 1289.13 460.96, 1289.69 463.76 C 1290.25 466.56, 1290.76 468.03, 1293.10 470.07 C 1295.44 472.11, 1297.41 472.84, 1301.38 473.96 C 1305.36 475.08, 1307.86 475.35, 1312.99 475.66 C 1318.11 475.98, 1321.36 475.79, 1327.03 475.55 C 1332.70 475.32, 1335.89 475.01, 1341.32 474.49 C 1346.75 473.98, 1349.55 473.56, 1354.18 472.97 C 1358.82 472.39, 1361.16 472.16, 1364.50 471.56 C 1367.84 470.97, 1369.64 470.63, 1370.88 470.00 C 1372.11 469.36, 1372.04 468.70, 1370.68 468.39 C 1369.31 468.08, 1367.45 468.14, 1364.07 468.46 C 1360.70 468.79, 1358.39 469.36, 1353.79 470.02 C 1349.18 470.68, 1346.43 471.22, 1341.06 471.76 C 1335.69 472.29, 1332.50 472.57, 1326.93 472.71 C 1321.37 472.85, 1318.13 472.92, 1313.24 472.45 C 1308.34 471.98, 1305.95 471.47, 1302.46 470.36 C 1298.98 469.24, 1297.58 468.33, 1295.81 466.88 C 1294.04 465.43, 1293.80 464.95, 1293.62 463.13 C 1293.44 461.31, 1293.94 460.02, 1294.91 457.79 C 1295.88 455.57, 1296.67 454.08, 1298.47 452.00 C 1300.28 449.91, 1301.77 448.88, 1303.93 447.37 C 1306.10 445.86, 1307.46 445.17, 1309.31 444.45 C 1311.16 443.72, 1312.10 443.47, 1313.18 443.73 C 1314.27 444.00, 1314.57 444.50, 1314.72 445.77 C 1314.87 447.05, 1314.83 447.99, 1313.93 450.12 C 1313.03 452.25, 1312.48 453.71, 1310.23 456.41 C 1307.98 459.11, 1306.24 460.86, 1302.68 463.61 C 1299.12 466.36, 1296.75 467.94, 1292.42 470.16 C 1288.09 472.37, 1285.58 473.39, 1281.04 474.68 C 1276.51 475.97, 1273.98 476.34, 1269.75 476.60 C 1265.51 476.86, 1263.31 476.69, 1259.86 475.96 C 1256.41 475.24, 1254.91 474.63, 1252.50 472.96 C 1250.09 471.29, 1249.19 470.31, 1247.83 467.63 C 1246.47 464.95, 1245.93 463.23, 1245.68 459.57 C 1245.43 455.90, 1245.67 453.60, 1246.60 449.31 C 1247.52 445.02, 1248.38 442.63, 1250.30 438.11 C 1252.23 433.60, 1253.47 431.01, 1256.21 426.73 C 1258.95 422.46, 1260.90 420.26, 1264.01 416.74 C 1267.12 413.22, 1268.79 411.50, 1271.75 409.14 C 1274.70 406.77, 1276.34 406.19, 1278.78 404.90 C 1281.21 403.61, 1282.38 403.16, 1283.92 402.70 C 1285.46 402.24, 1285.56 402.37, 1286.47 402.61 C 1287.38 402.85, 1287.97 403.14, 1288.47 403.91 C 1288.97 404.69, 1289.24 405.04, 1288.99 406.47 C 1288.73 407.90, 1288.23 408.80, 1287.20 411.06 C 1286.17 413.32, 1285.70 414.92, 1283.82 417.77 C 1281.94 420.61, 1280.68 422.02, 1277.79 425.30 C 1274.89 428.57, 1273.19 430.48, 1269.36 434.15 C 1265.52 437.82, 1263.33 439.92, 1258.62 443.65 C 1253.91 447.38, 1251.03 449.33, 1245.80 452.81 C 1240.58 456.29, 1237.78 458.20, 1232.48 461.04 C 1227.18 463.89, 1224.42 465.15, 1219.30 467.05 C 1214.18 468.95, 1211.34 469.72, 1206.88 470.55 C 1202.42 471.38, 1200.24 471.37, 1197.01 471.20 C 1193.77 471.03, 1192.65 470.46, 1190.70 469.69 C 1188.75 468.93, 1188.01 468.52, 1187.24 467.38 C 1186.48 466.23, 1186.55 465.51, 1186.87 463.96 C 1187.20 462.40, 1187.88 461.34, 1188.87 459.61 C 1189.85 457.87, 1190.59 456.88, 1191.80 455.27 C 1193.00 453.67, 1193.90 452.83, 1194.89 451.60 C 1195.88 450.37, 1196.33 449.58, 1196.74 449.12 C 1197.16 448.66, 1197.36 448.72, 1196.97 449.30 C 1196.59 449.87, 1196.20 450.39, 1194.82 452.00 C 1193.44 453.62, 1192.30 455.15, 1190.07 457.37 C 1187.84 459.59, 1186.34 461.02, 1183.68 463.10 C 1181.01 465.18, 1179.29 466.15, 1176.74 467.76 C 1174.19 469.37, 1172.76 470.01, 1170.93 471.14 C 1169.09 472.27, 1168.44 472.96, 1167.59 473.43 C 1166.73 473.90, 1166.42 474.09, 1166.63 473.48 C 1166.85 472.88, 1167.42 472.28, 1168.68 470.40 C 1169.93 468.52, 1170.88 466.86, 1172.90 464.07 C 1174.92 461.29, 1176.38 459.33, 1178.78 456.47 C 1181.18 453.60, 1182.86 452.11, 1184.90 449.75 C 1186.93 447.40, 1188.11 446.32, 1188.96 444.70 C 1189.82 443.09, 1189.65 442.17, 1189.19 441.67 C 1188.73 441.18, 1187.86 441.34, 1186.67 442.24 C 1185.48 443.13, 1184.84 444.27, 1183.25 446.14 C 1181.66 448.01, 1180.81 449.35, 1178.72 451.59 C 1176.64 453.82, 1175.53 455.04, 1172.84 457.32 C 1170.15 459.59, 1168.62 460.73, 1165.27 462.95 C 1161.91 465.17, 1160.09 466.35, 1156.06 468.40 C 1152.03 470.45, 1149.84 471.40, 1145.11 473.19 C 1140.38 474.98, 1137.65 476.01, 1132.42 477.35 C 1127.18 478.69, 1124.16 479.31, 1118.95 479.90 C 1113.75 480.48, 1110.88 480.57, 1106.40 480.30 C 1101.91 480.03, 1099.66 479.50, 1096.51 478.55 C 1093.36 477.60, 1092.06 476.78, 1090.64 475.55 C 1089.23 474.32, 1089.01 473.88, 1089.42 472.39 C 1089.83 470.90, 1090.62 470.27, 1092.68 468.11 C 1094.75 465.95, 1096.46 464.25, 1099.74 461.59 C 1103.02 458.92, 1105.30 457.16, 1109.09 454.79 C 1112.88 452.42, 1114.90 451.42, 1118.68 449.74 C 1122.46 448.07, 1124.57 447.26, 1127.99 446.43 C 1131.40 445.60, 1133.20 445.86, 1135.77 445.59 C 1138.34 445.32, 1139.29 445.43, 1140.83 445.08 C 1142.37 444.73, 1143.20 444.30, 1143.48 443.86 C 1143.77 443.41, 1143.39 442.92, 1142.26 442.85 C 1141.13 442.77, 1139.96 442.93, 1137.83 443.46 C 1135.69 444.00, 1134.26 444.77, 1131.58 445.52 C 1128.89 446.28, 1127.40 446.67, 1124.41 447.23 C 1121.42 447.78, 1119.35 447.74, 1116.62 448.30 C 1113.88 448.86, 1112.68 449.27, 1110.72 450.03 C 1108.76 450.79, 1107.52 451.26, 1106.83 452.09 C 1106.14 452.92, 1106.33 453.72, 1107.29 454.19" style="stroke:#ffffff; fill:#ffffff;"/><path d="M 1354.26,449.71 C 1354.95 450.03, 1355.37 450.26, 1357.11 449.83 C 1358.85 449.40, 1359.86 448.90, 1362.95 447.56 C 1366.03 446.21, 1368.36 444.85, 1372.53 443.11 C 1376.70 441.36, 1379.43 440.32, 1383.80 438.84 C 1388.17 437.36, 1390.73 436.52, 1394.38 435.73 C 1398.04 434.93, 1399.77 435.10, 1402.07 434.86 C 1404.37 434.61, 1405.28 434.45, 1405.88 434.51 C 1406.48 434.58, 1406.22 434.40, 1405.09 435.20 C 1403.96 436.00, 1402.96 436.63, 1400.24 438.53 C 1397.51 440.42, 1395.78 441.95, 1391.46 444.68 C 1387.14 447.42, 1384.08 449.07, 1378.64 452.21 C 1373.19 455.34, 1369.76 457.12, 1364.23 460.34 C 1358.69 463.55, 1355.77 465.31, 1350.96 468.28 C 1346.15 471.25, 1343.77 472.62, 1340.17 475.18 C 1336.58 477.74, 1334.73 478.69, 1332.97 481.09 C 1331.22 483.49, 1330.93 484.91, 1331.42 487.18 C 1331.90 489.44, 1332.77 490.83, 1335.39 492.41 C 1338.02 493.99, 1340.08 494.30, 1344.55 495.07 C 1349.02 495.85, 1351.99 496.09, 1357.75 496.28 C 1363.52 496.47, 1366.81 496.27, 1373.38 496.01 C 1379.96 495.75, 1383.64 495.48, 1390.64 495.00 C 1397.63 494.52, 1401.48 494.09, 1408.36 493.63 C 1415.25 493.17, 1418.64 492.93, 1425.06 492.70 C 1431.49 492.46, 1435.25 492.33, 1440.49 492.44 C 1445.72 492.55, 1447.76 493.12, 1451.24 493.22 C 1454.72 493.33, 1456.53 493.32, 1457.88 492.98 C 1459.23 492.63, 1459.26 492.00, 1457.97 491.50 C 1456.68 490.99, 1454.90 490.77, 1451.41 490.45 C 1447.92 490.13, 1445.80 489.88, 1440.51 489.88 C 1435.22 489.89, 1431.42 490.16, 1424.97 490.49 C 1418.51 490.82, 1415.12 491.08, 1408.22 491.55 C 1401.33 492.03, 1397.48 492.44, 1390.50 492.86 C 1383.52 493.27, 1379.84 493.52, 1373.32 493.63 C 1366.80 493.74, 1363.52 493.83, 1357.91 493.41 C 1352.29 492.99, 1349.37 492.46, 1345.26 491.52 C 1341.14 490.59, 1339.58 489.73, 1337.32 488.74 C 1335.06 487.75, 1334.28 487.66, 1333.96 486.57 C 1333.64 485.48, 1334.12 485.08, 1335.72 483.27 C 1337.31 481.47, 1338.62 480.12, 1341.93 477.55 C 1345.25 474.98, 1347.60 473.43, 1352.31 470.42 C 1357.01 467.40, 1359.92 465.63, 1365.45 462.46 C 1370.98 459.29, 1374.40 457.53, 1379.94 454.56 C 1385.49 451.58, 1388.60 450.08, 1393.17 447.59 C 1397.74 445.10, 1399.91 444.21, 1402.79 442.12 C 1405.68 440.02, 1406.74 438.94, 1407.61 437.10 C 1408.47 435.25, 1408.24 434.14, 1407.12 432.89 C 1406.00 431.64, 1404.72 430.99, 1402.00 430.84 C 1399.29 430.69, 1397.42 431.20, 1393.56 432.12 C 1389.69 433.05, 1387.17 434.01, 1382.68 435.46 C 1378.19 436.90, 1375.46 437.85, 1371.10 439.34 C 1366.75 440.83, 1364.05 441.54, 1360.91 442.92 C 1357.78 444.30, 1356.90 445.19, 1355.44 446.25 C 1353.99 447.30, 1353.90 447.50, 1353.66 448.19 C 1353.42 448.88, 1353.56 449.38, 1354.26 449.71" style="stroke:#ffffff; fill:#ffffff;"/></svg>