<?xml version="1.0"?><svg version="1.2" baseProfile="tiny-ps" viewBox="0 0 300 300" xmlns="http://www.w3.org/2000/svg" xmlns:xlink="http://www.w3.org/1999/xlink"><title>wolf</title><g><g fill="#080c0a" transform="matrix(.1 0 0 -.1 0 300)"><path d="m1310 1724-65-14-71-35-71-35-45-48-45-48-23-60c-12-32-24-75-27-94l-5-36 16-13 16-13 148 5 147 5 65 22c36 12 92 36 125 53l60 32 47 46 46 46 21 68c12 37 21 78 21 91v23l-19 11-20 10-128-1-128-1-65-14zm275-100c-22-74-58-109-170-163l-80-39-55-12-55-11-96 3-97 3 20 54 20 53 38 37c47 46 121 86 191 105l54 15h122l122 1-14-46zm-1129 54c-8-13-33-83-55-155-23-73-44-140-47-148l-6-15h157l41 19 41 19 58 71c32 39 60 69 62 67s8-30 13-62l10-58 25-25 25-25 68-4 67-4 28 89 29 88 29 42c16 23 36 60 44 83l14 41-67-3-67-3-35-102c-19-56-38-104-41-107s-12 33-19 80l-13 86-19 24-19 24h-71l-26-29c-15-15-56-65-92-109-36-45-66-78-68-74-1 4 11 48 28 97 16 49 30 95 30 102v13H470l-14-22zm1229-63-26-85-28-33-28-32-16-49c-10-27-17-51-17-53s103-3 229-3h229l16 47c9 26 16 48 16 50s-67 3-150 3h-150v11c0 6 12 49 26 95l25 84-3 23-3 22-47 3-46 3-27-86zm487 73c-10-14-102-296-102-316v-12h129l14 48 14 47 152 5 153 5 14 19c8 11 14 25 14 32s3 19 6 28l6 16h-310l5 20 5 20h316l20 18c11 9 25 32 30 50l11 32h-467l-10-12z"/></g></g></svg>